<?xml version="1.0" standalone="no"?>
<!DOCTYPE svg PUBLIC "-//W3C//DTD SVG 20010904//EN"
 "http://www.w3.org/TR/2001/REC-SVG-20010904/DTD/svg10.dtd">
<svg version="1.0" xmlns="http://www.w3.org/2000/svg"
 width="512.000000pt" height="512.000000pt" viewBox="0 0 512.000000 512.000000"
 preserveAspectRatio="xMidYMid meet">
<metadata>
Created by potrace 1.16, written by Peter Selinger 2001-2019
</metadata>
<g transform="translate(0.000000,512.000000) scale(0.100000,-0.100000)"
fill="#000000" stroke="none">
<path d="M2098 4621 c-124 -40 -189 -99 -316 -286 -57 -86 -98 -136 -121 -149
-28 -16 -62 -21 -190 -26 -168 -8 -210 -18 -292 -71 -58 -37 -127 -109 -161
-169 -59 -102 -58 -80 -58 -960 0 -707 2 -813 16 -861 43 -148 168 -274 315
-320 58 -18 111 -19 1268 -19 1073 0 1213 2 1262 16 148 43 274 168 320 315
18 58 19 104 19 868 0 881 1 859 -58 961 -34 60 -103 132 -161 169 -82 53
-124 63 -292 71 -128 5 -162 10 -190 26 -23 13 -63 63 -121 149 -127 187 -181
237 -307 281 -65 23 -72 24 -471 23 -365 0 -411 -2 -462 -18z m842 -326 c24
-14 63 -63 122 -150 95 -140 131 -182 194 -226 85 -58 136 -72 305 -79 130 -5
162 -10 190 -26 47 -28 77 -76 84 -137 3 -29 5 -371 3 -762 -3 -689 -4 -711
-23 -744 -26 -44 -62 -70 -111 -81 -52 -12 -2236 -12 -2288 0 -49 11 -85 37
-111 81 -19 33 -20 55 -23 744 -2 391 0 733 3 762 7 61 37 109 84 137 28 16
60 21 190 26 127 6 166 11 210 29 115 47 173 102 290 278 83 125 107 150 164
164 17 4 178 7 357 6 306 -2 327 -3 360 -22z"/>
<path d="M2385 3661 c-224 -65 -398 -245 -450 -463 -19 -83 -19 -244 1 -321
58 -225 244 -410 466 -462 81 -19 235 -19 317 0 217 51 408 241 465 461 20 78
21 238 1 323 -52 219 -247 414 -466 466 -88 20 -257 18 -334 -4z m313 -341
c71 -36 115 -83 150 -158 21 -47 24 -64 20 -136 -7 -126 -63 -213 -171 -266
-152 -74 -331 -17 -412 131 -33 61 -45 167 -26 236 17 61 70 134 125 171 61
41 94 50 182 51 60 1 80 -4 132 -29z"/>
<path d="M549 2202 c-91 -58 -182 -190 -214 -312 -21 -80 -19 -205 5 -284 124
-399 790 -698 1764 -791 l68 -7 -35 -36 c-81 -84 -86 -176 -14 -248 49 -48 95
-61 159 -44 36 10 72 41 226 193 101 100 190 194 198 209 18 35 18 121 0 156
-8 15 -97 109 -198 209 -197 195 -208 202 -298 190 -123 -16 -176 -180 -88
-274 l21 -22 -34 4 c-19 2 -79 9 -134 15 -718 78 -1325 352 -1325 598 0 51 40
128 91 176 49 47 59 71 59 138 0 65 -27 110 -84 137 -60 30 -112 27 -167 -7z"/>
<path d="M4400 2207 c-53 -28 -80 -75 -80 -139 0 -63 11 -88 59 -134 51 -48
91 -125 91 -176 0 -136 -198 -295 -515 -413 -135 -50 -196 -69 -364 -109 -79
-19 -155 -43 -170 -54 -90 -67 -86 -205 10 -270 31 -22 42 -23 109 -19 157 12
500 117 709 218 366 176 550 389 551 639 0 146 -48 270 -146 379 -89 98 -169
123 -254 78z"/>
</g>
</svg>
